<svg width="31" height="31" viewBox="0 0 31 31" fill="none" xmlns="http://www.w3.org/2000/svg">
<path d="M15.0618 7.3352C10.7954 7.32176 7.32848 10.7752 7.31504 15.0416C7.3016 19.308 10.755 22.7749 15.0214 22.7883C19.2879 22.8018 22.7547 19.3483 22.7682 15.0819C22.7816 10.8155 19.3282 7.34863 15.0618 7.3352ZM15.0214 10.0496C17.7896 10.0361 20.0403 12.2735 20.0538 15.0416C20.0672 17.8097 17.8299 20.0605 15.0618 20.0739C12.2936 20.0874 10.0429 17.85 10.0294 15.0819C10.016 12.3138 12.2533 10.063 15.0214 10.0496ZM21.2968 7.01941C21.2968 6.02504 22.103 5.21879 23.0974 5.21879C24.0918 5.21879 24.898 6.02504 24.898 7.01941C24.898 8.01379 24.0918 8.82004 23.0974 8.82004C22.103 8.82004 21.2968 8.01379 21.2968 7.01941ZM30.011 8.84691C29.8968 6.43488 29.3458 4.29832 27.5788 2.53801C25.8185 0.777696 23.6819 0.226758 21.2699 0.10582C18.7839 -0.0352734 11.3329 -0.0352734 8.84691 0.10582C6.4416 0.220039 4.30504 0.770976 2.53801 2.53129C0.770976 4.2916 0.226758 6.42816 0.10582 8.8402C-0.0352734 11.3261 -0.0352734 18.7772 0.10582 21.2632C0.220039 23.6752 0.770976 25.8118 2.53801 27.5721C4.30504 29.3324 6.43488 29.8833 8.84691 30.0043C11.3329 30.1454 18.7839 30.1454 21.2699 30.0043C23.6819 29.89 25.8185 29.3391 27.5788 27.5721C29.3391 25.8118 29.89 23.6752 30.011 21.2632C30.1521 18.7772 30.1521 11.3329 30.011 8.84691ZM26.7994 23.9305C26.2754 25.2474 25.2608 26.2619 23.9372 26.7927C21.9552 27.5788 17.2521 27.3974 15.0618 27.3974C12.8714 27.3974 8.1616 27.5721 6.18629 26.7927C4.86941 26.2686 3.85488 25.2541 3.3241 23.9305C2.53801 21.9485 2.71941 17.2454 2.71941 15.055C2.71941 12.8647 2.54473 8.15488 3.3241 6.17957C3.84816 4.8627 4.86269 3.84816 6.18629 3.31738C8.16832 2.53129 12.8714 2.7127 15.0618 2.7127C17.2521 2.7127 21.9619 2.53801 23.9372 3.31738C25.2541 3.84145 26.2686 4.85598 26.7994 6.17957C27.5855 8.1616 27.4041 12.8647 27.4041 15.055C27.4041 17.2454 27.5855 21.9552 26.7994 23.9305Z" fill="#245C4D"/>
</svg>
