<svg width="31" height="31" viewBox="0 0 31 31" fill="none" xmlns="http://www.w3.org/2000/svg">
<path d="M27.95 0H2.14328C0.960781 0 0 0.974219 0 2.17016V27.9298C0 29.1258 0.960781 30.1 2.14328 30.1H27.95C29.1325 30.1 30.1 29.1258 30.1 27.9298V2.17016C30.1 0.974219 29.1325 0 27.95 0ZM9.09719 25.8H4.63594V11.4353H9.10391V25.8H9.09719ZM6.86656 4.3C8.29766 4.3 9.45328 5.45562 9.45328 6.88672C9.45328 8.31781 8.29766 9.47344 6.86656 9.47344C5.43547 9.47344 4.27984 8.31781 4.27984 6.88672C4.27984 5.45562 5.43547 4.3 6.86656 4.3ZM25.8202 25.8H21.3589V18.8125C21.3589 17.1462 21.3253 15.003 19.0409 15.003C16.7162 15.003 16.3602 16.817 16.3602 18.6916V25.8H11.8989V11.4353H16.1787V13.3972H16.2392C16.8372 12.2684 18.2952 11.0792 20.4653 11.0792C24.9803 11.0792 25.8202 14.0556 25.8202 17.9256V25.8Z" fill="#245C4D"/>
</svg>
